{"title":"Action Jackson 2014 Hindi Movies XViD PDVDRip with Sample â˜»rDXâ˜»","uid":11644051,"size":738411469,"categoryP":"video","categoryS":"movies","magnet":"?xt=urn:btih:540f39d0d8407136d116a5b67a8b5716a76cb454&amp;dn=Action+Jackson+2014+Hindi+Movies+XViD+PDVDRip+with+Sample+%E2%98%BBrDX%E2%98%BB&amp;tr=udp%3A%2F%2Ftracker.openbittorrent.com%3A80&amp;tr=udp%3A%2F%2Fopen.demonii.com%3A1337&amp;tr=udp%3A%2F%2Ftracker.coppersurfer.tk%3A6969&amp;tr=udp%3A%2F%2Fexodus.desync.com%3A6969","seeders":1,"leechers":0,"uploader":"basicssom","files":2,"time":1417798136,"description":"----------------------------------------------------------------\nAction Jackson 2014 Hindi Movies XViD PDVDRip with Sample ~ â˜»rDXâ˜»\n\nSCREEN SHOTS &amp; POSTER:\n &lt;a href=&quot;\nhttp://planethost.co.nr/12/ActionJacksonpd/11.html&quot; rel=&quot;nofollow&quot; target=&quot;_NEW&quot;&gt;\nhttp://planethost.co.nr/12/ActionJacksonpd/11.html&lt;/a&gt; &lt;a href=&quot;\nhttp://planethost.co.nr/12/ActionJacksonpd/1.html&quot; rel=&quot;nofollow&quot; target=&quot;_NEW&quot;&gt;\nhttp://planethost.co.nr/12/ActionJacksonpd/1.html&lt;/a&gt; &lt;a href=&quot;\nhttp://planethost.co.nr/12/ActionJacksonpd/2.html&quot; rel=&quot;nofollow&quot; target=&quot;_NEW&quot;&gt;\nhttp://planethost.co.nr/12/ActionJacksonpd/2.html&lt;/a&gt; &lt;a href=&quot;\nhttp://planethost.co.nr/12/ActionJacksonpd/3.html&quot; rel=&quot;nofollow&quot; target=&quot;_NEW&quot;&gt;\nhttp://planethost.co.nr/12/ActionJacksonpd/3.html&lt;/a&gt; &lt;a href=&quot;\nhttp://planethost.co.nr/12/ActionJacksonpd/4.html&quot; rel=&quot;nofollow&quot; target=&quot;_NEW&quot;&gt;\nhttp://planethost.co.nr/12/ActionJacksonpd/4.html&lt;/a&gt; &lt;a href=&quot;\nhttp://planethost.co.nr/12/ActionJacksonpd/5.html&quot; rel=&quot;nofollow&quot; target=&quot;_NEW&quot;&gt;\nhttp://planethost.co.nr/12/ActionJacksonpd/5.html&lt;/a&gt; &lt;a href=&quot;\nhttp://planethost.co.nr/12/ActionJacksonpd/6.html&quot; rel=&quot;nofollow&quot; target=&quot;_NEW&quot;&gt;\nhttp://planethost.co.nr/12/ActionJacksonpd/6.html&lt;/a&gt; &lt;a href=&quot;\nhttp://planethost.co.nr/12/ActionJacksonpd/7.html&quot; rel=&quot;nofollow&quot; target=&quot;_NEW&quot;&gt;\nhttp://planethost.co.nr/12/ActionJacksonpd/7.html&lt;/a&gt; &lt;a href=&quot;\nhttp://planethost.co.nr/12/ActionJacksonpd/8.html&quot; rel=&quot;nofollow&quot; target=&quot;_NEW&quot;&gt;\nhttp://planethost.co.nr/12/ActionJacksonpd/8.html&lt;/a&gt; &lt;a href=&quot;\nhttp://planethost.co.nr/12/ActionJacksonpd/9.html&quot; rel=&quot;nofollow&quot; target=&quot;_NEW&quot;&gt;\nhttp://planethost.co.nr/12/ActionJacksonpd/9.html&lt;/a&gt; &lt;a href=&quot;\nhttp://planethost.co.nr/12/ActionJacksonpd/10.html&quot; rel=&quot;nofollow&quot; target=&quot;_NEW&quot;&gt;\nhttp://planethost.co.nr/12/ActionJacksonpd/10.html&lt;/a&gt;\n\nFormat                                   : Matroska\nFormat version                           : Version 4 / Version 2\nFile size                                : 689 MiB\nDuration                                 : 2h 26mn\nOverall bit rate                         : 657 Kbps\nMovie name                               : Action Jackson 2014 Hindi Movies XViD PDVDRip ~ rDX ~\n\nVideo\nID                                       : 1\nFormat                                   : MPEG-4 Visual\nFormat profile                           : Advanced Simple@L5\nFormat settings, BVOP                    : Yes\nFormat settings, QPel                    : No\nFormat settings, GMC                     : No warppoints\nFormat settings, Matrix                  : Default (H.263)\nCodec ID                                 : V_MS/VFW/FOURCC / XVID\nCodec ID/Hint                            : XviD\nDuration                                 : 2h 26mn\nBit rate                                 : 564 Kbps\nWidth                                    : 640 pixels\nHeight                                   : 272 pixels\nDisplay aspect ratio                     : 2.35:1\nFrame rate mode                          : Constant\nFrame rate                               : 23.976 fps\nColor space                              : YUV\nChroma subsampling                       : 4:2:0\nBit depth                                : 8 bits\nScan type                                : Progressive\nCompression mode                         : Lossy\nBits/(Pixel*Frame)                       : 0.135\nStream size                              : 591 MiB (86%)\nTitle                                    : ~ rDX ~\nWriting library                          : XviD 1.2.1 (UTC 2008-12-04)\nDefault                                  : Yes\nForced                                   : No\n\nAudio\nID                                       : 2\nFormat                                   : MPEG Audio\nFormat version                           : Version 1\nFormat profile                           : Layer 3\nMode                                     : Joint stereo\nMode extension                           : MS Stereo\nCodec ID                                 : A_MPEG/L3\nCodec ID/Hint                            : MP3\nDuration                                 : 2h 26mn\nBit rate mode                            : Constant\nBit rate                                 : 80.0 Kbps\nChannel(s)                               : 2 channels\nSampling rate                            : 32.0 KHz\nCompression mode                         : Lossy\nStream size                              : 83.9 MiB (12%)\nTitle                                    : ~ rDX ~\nWriting library                          : LAME3.99r\nEncoding settings                        : -m j -V 4 -q 2 -lowpass 13.5 -b 80\nDefault                                  : Yes\nForced                                   : No","torrent":{"xt":"urn:btih:540f39d0d8407136d116a5b67a8b5716a76cb454","amp;dn":"Action+Jackson+2014+Hindi+Movies+XViD+PDVDRip+with+Sample+%E2%98%BBrDX%E2%98%BB","amp;tr":["udp%3A%2F%2Ftracker.openbittorrent.com%3A80","udp%3A%2F%2Fopen.demonii.com%3A1337","udp%3A%2F%2Ftracker.coppersurfer.tk%3A6969","udp%3A%2F%2Fexodus.desync.com%3A6969"],"infoHash":"540f39d0d8407136d116a5b67a8b5716a76cb454","infoHashBuffer":{"type":"Buffer","data":[84,15,57,208,216,64,113,54,209,22,165,182,122,139,87,22,167,108,180,84]},"announce":[],"urlList":[]}}